<svg xmlns="http://www.w3.org/2000/svg" xmlns:xlink="http://www.w3.org/1999/xlink" width="500" zoomAndPan="magnify" viewBox="0 0 375 374.999991" height="500" preserveAspectRatio="xMidYMid meet" version="1.0"><defs><g/><clipPath id="04de38cdcf"><path d="M 38 37.5 L 331 37.5 L 331 321 L 38 321 Z M 38 37.5 " clip-rule="nonzero"/></clipPath></defs><g clip-path="url(#04de38cdcf)"><path fill="#5d3954" d="M 93.679688 78.582031 C 90.320312 81.367188 87.226562 84.355469 84.398438 87.550781 C 85.753906 86.148438 87.164062 84.742188 88.621094 83.328125 C 89.898438 82.082031 91.585938 80.5 93.679688 78.582031 M 79.996094 81.230469 C 77.714844 83.269531 75.691406 85.210938 73.925781 87.050781 C 72.160156 88.886719 70.582031 90.664062 69.191406 92.375 C 72.339844 88.820312 75.941406 85.105469 79.996094 81.230469 M 316.832031 147.527344 L 316.777344 148.125 L 316.761719 148.730469 L 316.796875 149.339844 L 316.878906 149.957031 L 317.023438 150.585938 L 317.230469 151.222656 L 317.507812 151.878906 L 317.863281 152.546875 L 318.296875 153.230469 L 318.816406 153.9375 L 319.429688 154.664062 L 320.140625 155.414062 C 319.199219 153.070312 318.097656 150.441406 316.832031 147.527344 M 184.476562 37.601562 L 182.578125 37.617188 C 142.863281 39.335938 108.699219 53.847656 80.074219 81.15625 C 110.136719 54.800781 143.871094 41.234375 181.28125 40.460938 C 200.773438 40.59375 217.375 43.539062 231.082031 49.289062 C 251.585938 57.5 267.976562 67.367188 280.25 78.898438 C 289.183594 87.273438 295.835938 94.707031 300.207031 101.199219 C 289.21875 85.722656 272.597656 72.351562 250.351562 61.09375 C 226.160156 49.976562 202.546875 44.417969 179.507812 44.421875 C 148.347656 43.808594 119.753906 55.183594 93.726562 78.539062 C 120.601562 57.089844 150.644531 47.578125 183.851562 50 C 222.449219 53.496094 254.84375 67.316406 281.027344 91.460938 C 295.296875 104.941406 307.230469 123.625 316.835938 147.515625 C 318.6875 141.445312 319.210938 137.800781 318.414062 136.574219 C 322.226562 148.003906 324.488281 159.871094 325.203125 172.171875 C 327.785156 206.953125 316.902344 239.730469 292.5625 270.503906 C 332.5 225.390625 340.585938 175.105469 316.820312 119.648438 C 303.882812 93.175781 286.890625 73.828125 265.847656 61.601562 C 239.535156 45.851562 212.410156 37.851562 184.476562 37.601562 M 292.515625 270.554688 L 291.511719 271.636719 C 288.484375 274.910156 285.234375 278.222656 281.769531 281.570312 L 284.117188 279.691406 L 284.628906 279.261719 C 284.773438 279.160156 285.367188 278.597656 286.40625 277.570312 C 287.273438 276.691406 288.222656 275.660156 289.253906 274.476562 L 290.847656 272.609375 L 292.515625 270.554688 M 84.34375 87.601562 L 81.875 90.207031 C 53.777344 121.703125 41.253906 157.066406 44.308594 196.289062 C 39.789062 179.425781 40.027344 161.785156 45.019531 143.371094 C 49.835938 123.890625 57.878906 106.910156 69.148438 92.433594 C 50.492188 113.84375 40.253906 141.253906 38.433594 174.667969 C 38.378906 180.699219 39.386719 188.25 41.453125 197.324219 C 48.730469 223.160156 52.988281 236.871094 54.226562 238.457031 C 62.253906 256.730469 71.703125 270.925781 82.574219 281.035156 C 96.464844 294.03125 111.757812 303.785156 128.460938 310.296875 C 145.316406 317.296875 161.289062 320.65625 176.375 320.382812 C 197.949219 319.914062 218.230469 316.695312 237.21875 310.722656 C 251.003906 305.804688 265.847656 296.097656 281.742188 281.597656 C 265.292969 294.707031 251.152344 303.089844 239.316406 306.753906 C 217.164062 312.84375 196.714844 315.742188 177.972656 315.449219 C 166.214844 316.265625 149.476562 311.996094 127.746094 302.644531 C 111.878906 295.703125 98.773438 287.132812 88.429688 276.933594 C 80.167969 268.644531 73.886719 260.90625 69.589844 253.726562 C 82.386719 269.085938 100.957031 283.75 125.292969 297.710938 C 136.992188 304.226562 148.636719 308.898438 160.234375 311.726562 C 163.21875 312.40625 164.902344 312.648438 165.292969 312.460938 C 165.503906 312.390625 165.484375 312.246094 165.230469 312.019531 C 165.742188 312.375 166.511719 312.039062 167.535156 311.015625 C 168.394531 309.96875 168.960938 308.941406 169.226562 307.929688 C 153.867188 307.570312 130.203125 297.09375 98.238281 276.492188 C 79.996094 262.875 66.265625 246.894531 57.050781 228.5625 C 48.324219 207.6875 46.445312 182.910156 51.40625 154.230469 C 55.054688 131.972656 66.035156 109.765625 84.34375 87.601562 " fill-opacity="1" fill-rule="nonzero"/></g><g fill="#ffffff" fill-opacity="1"><g transform="translate(174.857059, 237.837764)"><g><path d="M 1.390625 0 C 0.984375 0 0.78125 -0.207031 0.78125 -0.625 L 0.78125 -2.484375 C 0.78125 -2.890625 1.140625 -3.09375 1.859375 -3.09375 C 4.285156 -3.09375 6.972656 -3.351562 9.921875 -3.875 C 19.378906 -5.476562 24.109375 -8.734375 24.109375 -13.640625 L 24.109375 -95.453125 C 23.597656 -102.066406 20.578125 -105.65625 15.046875 -106.21875 C 13.390625 -106.425781 11.550781 -106.53125 9.53125 -106.53125 L 5.125 -106.53125 C 4.707031 -106.53125 4.5 -106.738281 4.5 -107.15625 L 4.5 -109.09375 C 4.5 -109.507812 4.707031 -109.71875 5.125 -109.71875 L 8.53125 -109.796875 L 21.859375 -109.875 L 49.46875 -110.71875 C 79.039062 -110.71875 93.828125 -101.984375 93.828125 -84.515625 C 93.828125 -77.117188 90 -70.96875 82.34375 -66.0625 C 81.15625 -65.289062 80.132812 -64.722656 79.28125 -64.359375 C 78.425781 -63.992188 77.945312 -63.785156 77.84375 -63.734375 C 84.664062 -59.910156 90.03125 -55.617188 93.9375 -50.859375 C 97.84375 -46.109375 99.796875 -40.425781 99.796875 -33.8125 C 99.796875 -19.695312 93.125 -9.875 79.78125 -4.34375 C 72.90625 -1.445312 65.4375 0 57.375 0 Z M 40.625 -60.484375 C 39.957031 -60.484375 39.625 -60.195312 39.625 -59.625 L 39.625 -17.140625 C 39.625 -13.460938 41.34375 -10.515625 44.78125 -8.296875 C 48.21875 -6.078125 51.925781 -4.96875 55.90625 -4.96875 C 63.550781 -4.96875 70.0625 -7.691406 75.4375 -13.140625 C 80.820312 -18.597656 83.515625 -25.316406 83.515625 -33.296875 C 83.515625 -41.285156 80.628906 -47.8125 74.859375 -52.875 C 69.097656 -57.945312 61.796875 -60.484375 52.953125 -60.484375 Z M 39.46875 -66.765625 C 39.46875 -65.773438 40.0625 -65.28125 41.25 -65.28125 L 60.328125 -65.28125 C 65.285156 -65.28125 69.457031 -67.113281 72.84375 -70.78125 C 76.226562 -74.457031 77.921875 -78.570312 77.921875 -83.125 C 77.921875 -91.238281 75.617188 -97.113281 71.015625 -100.75 C 66.421875 -104.394531 60.296875 -106.21875 52.640625 -106.21875 C 50.316406 -106.070312 48.703125 -106 47.796875 -106 C 46.890625 -106 45.945312 -106.007812 44.96875 -106.03125 C 43.988281 -106.0625 43.003906 -106 42.015625 -105.84375 C 41.035156 -105.6875 40.363281 -105.347656 40 -104.828125 C 39.644531 -104.316406 39.46875 -103.460938 39.46875 -102.265625 Z M 39.46875 -66.765625 "/></g></g></g><g fill="#ffffff" fill-opacity="1"><g transform="translate(81.844651, 218.17224)"><g><path d="M 4.109375 0 C 3.796875 0 3.613281 -0.0859375 3.5625 -0.265625 C 3.507812 -0.453125 3.484375 -0.570312 3.484375 -0.625 L 3.484375 -3.953125 C 3.484375 -4.003906 3.507812 -4.117188 3.5625 -4.296875 C 3.613281 -4.472656 3.796875 -4.5625 4.109375 -4.5625 L 5.8125 -4.5625 C 6.894531 -4.5625 8.234375 -4.625 9.828125 -4.75 C 11.429688 -4.882812 12.976562 -5.25 14.46875 -5.84375 C 15.96875 -6.4375 17.242188 -7.335938 18.296875 -8.546875 C 19.359375 -9.765625 19.890625 -11.429688 19.890625 -13.546875 L 19.890625 -96.078125 C 19.890625 -97.671875 19.539062 -99.019531 18.84375 -100.125 C 18.15625 -101.238281 17.28125 -102.144531 16.21875 -102.84375 C 15.15625 -103.539062 13.976562 -104.046875 12.6875 -104.359375 C 11.40625 -104.671875 10.195312 -104.828125 9.0625 -104.828125 L 4.109375 -104.828125 C 3.796875 -104.828125 3.613281 -104.914062 3.5625 -105.09375 C 3.507812 -105.269531 3.484375 -105.382812 3.484375 -105.4375 L 3.484375 -108.765625 C 3.484375 -108.816406 3.507812 -108.929688 3.5625 -109.109375 C 3.613281 -109.296875 3.796875 -109.390625 4.109375 -109.390625 L 5.8125 -109.390625 L 37.625 -109.9375 C 40.613281 -109.976562 43.847656 -110.007812 47.328125 -110.03125 C 50.816406 -110.0625 54.0625 -110.078125 57.0625 -110.078125 C 60.3125 -110.078125 63.222656 -110.039062 65.796875 -109.96875 C 68.378906 -109.894531 70.859375 -109.738281 73.234375 -109.5 C 75.609375 -109.269531 78.007812 -108.972656 80.4375 -108.609375 C 82.863281 -108.253906 85.570312 -107.765625 88.5625 -107.140625 C 94.289062 -105.953125 99.617188 -103.757812 104.546875 -100.5625 C 109.472656 -97.363281 113.726562 -93.492188 117.3125 -88.953125 C 120.90625 -84.410156 123.71875 -79.378906 125.75 -73.859375 C 127.789062 -68.335938 128.8125 -62.6875 128.8125 -56.90625 C 128.8125 -51.332031 128.035156 -46.050781 126.484375 -41.0625 C 124.941406 -36.082031 122.789062 -31.488281 120.03125 -27.28125 C 117.269531 -23.082031 113.992188 -19.289062 110.203125 -15.90625 C 106.410156 -12.53125 102.242188 -9.664062 97.703125 -7.3125 C 93.160156 -4.96875 88.332031 -3.160156 83.21875 -1.890625 C 78.113281 -0.628906 72.875 0 67.5 0 Z M 41.953125 -12 C 41.953125 -10.5 42.429688 -9.335938 43.390625 -8.515625 C 44.347656 -7.691406 45.613281 -7.082031 47.1875 -6.6875 C 48.757812 -6.300781 50.601562 -6.082031 52.71875 -6.03125 C 54.832031 -5.988281 57.050781 -5.96875 59.375 -5.96875 C 74.707031 -5.96875 86.203125 -10.195312 93.859375 -18.65625 C 101.523438 -27.125 105.359375 -39.457031 105.359375 -55.65625 C 105.359375 -62.78125 104.492188 -69.3125 102.765625 -75.25 C 101.035156 -81.1875 98.398438 -86.296875 94.859375 -90.578125 C 91.328125 -94.859375 86.890625 -98.1875 81.546875 -100.5625 C 76.210938 -102.9375 69.90625 -104.125 62.625 -104.125 L 43.890625 -104.125 C 43.117188 -104.125 42.601562 -103.957031 42.34375 -103.625 C 42.082031 -103.289062 41.953125 -102.757812 41.953125 -102.03125 Z M 41.953125 -12 "/></g></g></g><g fill="#ffffff" fill-opacity="1"><g transform="translate(110.983277, 258.550881)"><g><path d="M 0.734375 0 L 0.734375 -7.109375 L 2.84375 -7.109375 C 4.226562 -7.109375 5.273438 -6.8125 5.984375 -6.21875 C 6.691406 -5.625 7.046875 -4.742188 7.046875 -3.578125 C 7.046875 -2.859375 6.882812 -2.226562 6.5625 -1.6875 C 6.25 -1.15625 5.804688 -0.738281 5.234375 -0.4375 C 4.660156 -0.144531 3.988281 0 3.21875 0 Z M 2.03125 -1.15625 L 3.171875 -1.15625 C 4.003906 -1.15625 4.632812 -1.351562 5.0625 -1.75 C 5.5 -2.15625 5.71875 -2.75 5.71875 -3.53125 C 5.71875 -4.34375 5.492188 -4.945312 5.046875 -5.34375 C 4.609375 -5.75 3.929688 -5.953125 3.015625 -5.953125 L 2.03125 -5.953125 Z M 2.03125 -1.15625 "/></g></g></g><g fill="#ffffff" fill-opacity="1"><g transform="translate(126.482334, 258.550881)"><g><path d="M 5.3125 -5.984375 L 2 -5.984375 L 2 -4.15625 L 5.140625 -4.15625 L 5.140625 -3.03125 L 2 -3.03125 L 2 -1.125 L 5.421875 -1.125 L 5.34375 0 L 0.734375 0 L 0.734375 -7.109375 L 5.3125 -7.109375 Z M 5.3125 -5.984375 "/></g></g></g><g fill="#ffffff" fill-opacity="1"><g transform="translate(140.149959, 258.550881)"><g><path d="M 5.3125 -5.984375 L 2 -5.984375 L 2 -4.15625 L 5.140625 -4.15625 L 5.140625 -3.03125 L 2 -3.03125 L 2 -1.125 L 5.421875 -1.125 L 5.34375 0 L 0.734375 0 L 0.734375 -7.109375 L 5.3125 -7.109375 Z M 5.3125 -5.984375 "/></g></g></g><g fill="#ffffff" fill-opacity="1"><g transform="translate(153.817582, 258.550881)"><g><path d="M 2 0 L 0.734375 0 L 0.734375 -7.109375 L 3.234375 -7.109375 C 4.160156 -7.109375 4.863281 -6.921875 5.34375 -6.546875 C 5.832031 -6.171875 6.078125 -5.628906 6.078125 -4.921875 C 6.078125 -4.210938 5.8125 -3.65625 5.28125 -3.25 C 4.757812 -2.84375 3.992188 -2.640625 2.984375 -2.640625 L 2 -2.640625 Z M 3.1875 -6.046875 L 2 -6.046875 L 2 -3.71875 L 3.0625 -3.71875 C 3.65625 -3.71875 4.085938 -3.8125 4.359375 -4 C 4.640625 -4.195312 4.78125 -4.5 4.78125 -4.90625 C 4.78125 -5.3125 4.648438 -5.601562 4.390625 -5.78125 C 4.128906 -5.957031 3.726562 -6.046875 3.1875 -6.046875 Z M 3.1875 -6.046875 "/></g></g></g><g fill="#ffffff" fill-opacity="1"><g transform="translate(168.075666, 258.550881)"><g/></g></g><g fill="#ffffff" fill-opacity="1"><g transform="translate(178.520762, 258.550881)"><g><path d="M 0.734375 0 L 0.734375 -7.109375 L 3.09375 -7.109375 C 4 -7.109375 4.691406 -6.941406 5.171875 -6.609375 C 5.660156 -6.285156 5.90625 -5.804688 5.90625 -5.171875 C 5.90625 -4.828125 5.820312 -4.519531 5.65625 -4.25 C 5.488281 -3.976562 5.25 -3.765625 4.9375 -3.609375 C 5.257812 -3.484375 5.519531 -3.28125 5.71875 -3 C 5.914062 -2.71875 6.015625 -2.394531 6.015625 -2.03125 C 6.015625 -1.414062 5.78125 -0.921875 5.3125 -0.546875 C 4.851562 -0.179688 4.222656 0 3.421875 0 Z M 3.109375 -6.046875 L 2 -6.046875 L 2 -4.109375 L 3.09375 -4.109375 C 3.601562 -4.109375 3.976562 -4.1875 4.21875 -4.34375 C 4.46875 -4.507812 4.59375 -4.765625 4.59375 -5.109375 C 4.59375 -5.429688 4.472656 -5.664062 4.234375 -5.8125 C 4.003906 -5.96875 3.628906 -6.046875 3.109375 -6.046875 Z M 2 -1.0625 L 3.390625 -1.0625 C 3.796875 -1.0625 4.117188 -1.140625 4.359375 -1.296875 C 4.597656 -1.460938 4.71875 -1.71875 4.71875 -2.0625 C 4.71875 -2.707031 4.265625 -3.03125 3.359375 -3.03125 L 2 -3.03125 Z M 2 -1.0625 "/></g></g></g><g fill="#ffffff" fill-opacity="1"><g transform="translate(192.868923, 258.550881)"><g><path d="M 5.3125 -5.984375 L 2 -5.984375 L 2 -4.15625 L 5.140625 -4.15625 L 5.140625 -3.03125 L 2 -3.03125 L 2 -1.125 L 5.421875 -1.125 L 5.34375 0 L 0.734375 0 L 0.734375 -7.109375 L 5.3125 -7.109375 Z M 5.3125 -5.984375 "/></g></g></g><g fill="#ffffff" fill-opacity="1"><g transform="translate(206.536549, 258.550881)"><g><path d="M -0.09375 0 L 2.9375 -7.109375 L 4.03125 -7.109375 L 6.953125 0 L 5.625 0 L 4.984375 -1.625 L 1.890625 -1.625 L 1.21875 0 Z M 2.328125 -2.71875 L 4.5625 -2.71875 L 3.46875 -5.515625 Z M 2.328125 -2.71875 "/></g></g></g><g fill="#ffffff" fill-opacity="1"><g transform="translate(221.435131, 258.550881)"><g><path d="M 5.453125 -7.109375 L 6.75 -7.109375 L 6.765625 -3.328125 C 6.765625 -2.617188 6.644531 -2.007812 6.40625 -1.5 C 6.175781 -0.988281 5.832031 -0.59375 5.375 -0.3125 C 4.925781 -0.0390625 4.382812 0.09375 3.75 0.09375 C 2.738281 0.09375 1.976562 -0.160156 1.46875 -0.671875 C 0.957031 -1.179688 0.703125 -1.960938 0.703125 -3.015625 L 0.703125 -7.109375 L 2 -7.109375 L 2 -3.109375 C 2 -2.398438 2.144531 -1.882812 2.4375 -1.5625 C 2.726562 -1.238281 3.160156 -1.078125 3.734375 -1.078125 C 4.316406 -1.078125 4.753906 -1.265625 5.046875 -1.640625 C 5.335938 -2.015625 5.476562 -2.597656 5.46875 -3.390625 Z M 5.453125 -7.109375 "/></g></g></g><g fill="#ffffff" fill-opacity="1"><g transform="translate(236.904166, 258.550881)"><g><path d="M 5.890625 -7.109375 L 5.734375 -5.96875 L 3.53125 -5.96875 L 3.53125 0 L 2.21875 0 L 2.21875 -5.96875 L -0.0625 -5.96875 L -0.0625 -7.109375 Z M 5.890625 -7.109375 "/></g></g></g><g fill="#ffffff" fill-opacity="1"><g transform="translate(250.661851, 258.550881)"><g><path d="M 6.09375 -7.109375 L 3.609375 -3.1875 L 3.609375 0 L 2.296875 0 L 2.296875 -3.15625 L -0.265625 -7.109375 L 1.21875 -7.109375 L 3 -4.3125 L 4.734375 -7.109375 Z M 6.09375 -7.109375 "/></g></g></g><g fill="#ffffff" fill-opacity="1"><g transform="translate(264.557485, 258.550881)"><g/></g></g><g fill="#ffffff" fill-opacity="1"><g transform="translate(168.401068, 284.970332)"><g><path d="M 3.953125 -3.859375 C 4.578125 -3.785156 5.066406 -3.578125 5.421875 -3.234375 C 5.785156 -2.898438 5.96875 -2.484375 5.96875 -1.984375 C 5.96875 -1.609375 5.859375 -1.265625 5.640625 -0.953125 C 5.421875 -0.648438 5.113281 -0.40625 4.71875 -0.21875 C 4.332031 -0.0390625 3.90625 0.046875 3.4375 0.046875 C 3.226562 0.046875 2.992188 0.0351562 2.734375 0.015625 C 2.628906 0.00390625 2.5 0 2.34375 0 C 2.195312 -0.0078125 2.03125 -0.015625 1.84375 -0.015625 L 1.046875 -0.015625 C 0.898438 -0.00390625 0.703125 0 0.453125 0 C 0.429688 0 0.421875 -0.0195312 0.421875 -0.0625 C 0.421875 -0.101562 0.429688 -0.125 0.453125 -0.125 C 0.660156 -0.125 0.816406 -0.144531 0.921875 -0.1875 C 1.035156 -0.226562 1.117188 -0.300781 1.171875 -0.40625 C 1.222656 -0.519531 1.25 -0.679688 1.25 -0.890625 L 1.25 -5.984375 C 1.25 -6.296875 1.195312 -6.5 1.09375 -6.59375 C 0.988281 -6.695312 0.78125 -6.75 0.46875 -6.75 C 0.445312 -6.75 0.4375 -6.769531 0.4375 -6.8125 C 0.4375 -6.851562 0.445312 -6.875 0.46875 -6.875 L 1.046875 -6.859375 C 1.378906 -6.847656 1.644531 -6.84375 1.84375 -6.84375 C 2.050781 -6.84375 2.265625 -6.851562 2.484375 -6.875 C 2.554688 -6.882812 2.664062 -6.890625 2.8125 -6.890625 C 2.957031 -6.898438 3.085938 -6.90625 3.203125 -6.90625 C 3.867188 -6.90625 4.382812 -6.785156 4.75 -6.546875 C 5.113281 -6.304688 5.296875 -5.953125 5.296875 -5.484375 C 5.296875 -5.140625 5.179688 -4.820312 4.953125 -4.53125 C 4.722656 -4.25 4.390625 -4.023438 3.953125 -3.859375 Z M 3.03125 -6.671875 C 2.820312 -6.671875 2.675781 -6.617188 2.59375 -6.515625 C 2.507812 -6.421875 2.46875 -6.238281 2.46875 -5.96875 L 2.46875 -3.875 L 2.921875 -3.859375 C 3.296875 -3.859375 3.585938 -4 3.796875 -4.28125 C 4.003906 -4.570312 4.109375 -4.941406 4.109375 -5.390625 C 4.109375 -5.804688 4.015625 -6.125 3.828125 -6.34375 C 3.640625 -6.5625 3.375 -6.671875 3.03125 -6.671875 Z M 3.25 -0.234375 C 4.207031 -0.234375 4.6875 -0.734375 4.6875 -1.734375 C 4.6875 -2.296875 4.550781 -2.738281 4.28125 -3.0625 C 4.007812 -3.394531 3.597656 -3.5625 3.046875 -3.5625 C 2.835938 -3.5625 2.644531 -3.554688 2.46875 -3.546875 L 2.46875 -0.890625 C 2.46875 -0.648438 2.515625 -0.476562 2.609375 -0.375 C 2.710938 -0.28125 2.925781 -0.234375 3.25 -0.234375 Z M 3.25 -0.234375 "/></g></g></g><g fill="#ffffff" fill-opacity="1"><g transform="translate(177.911554, 284.970332)"><g><path d="M 4.84375 -4.25 C 4.863281 -4.25 4.875 -4.222656 4.875 -4.171875 C 4.875 -4.128906 4.863281 -4.109375 4.84375 -4.109375 C 4.613281 -4.109375 4.410156 -4.007812 4.234375 -3.8125 C 4.066406 -3.613281 3.910156 -3.320312 3.765625 -2.9375 L 2.546875 0.3125 C 2.160156 1.332031 1.789062 2.050781 1.4375 2.46875 C 1.082031 2.882812 0.6875 3.09375 0.25 3.09375 C 0.03125 3.09375 -0.132812 3.046875 -0.25 2.953125 C -0.363281 2.859375 -0.421875 2.722656 -0.421875 2.546875 C -0.421875 2.378906 -0.367188 2.25 -0.265625 2.15625 C -0.171875 2.070312 -0.0507812 2.03125 0.09375 2.03125 C 0.175781 2.03125 0.242188 2.039062 0.296875 2.0625 C 0.359375 2.082031 0.425781 2.117188 0.5 2.171875 C 0.644531 2.273438 0.78125 2.328125 0.90625 2.328125 C 1.070312 2.328125 1.222656 2.257812 1.359375 2.125 C 1.492188 2 1.632812 1.785156 1.78125 1.484375 C 1.925781 1.191406 2.101562 0.769531 2.3125 0.21875 L 0.546875 -3.328125 C 0.390625 -3.648438 0.265625 -3.859375 0.171875 -3.953125 C 0.078125 -4.054688 -0.0351562 -4.109375 -0.171875 -4.109375 C -0.191406 -4.109375 -0.203125 -4.128906 -0.203125 -4.171875 C -0.203125 -4.222656 -0.191406 -4.25 -0.171875 -4.25 C 0.0351562 -4.25 0.195312 -4.242188 0.3125 -4.234375 L 0.765625 -4.21875 L 1.53125 -4.234375 C 1.644531 -4.242188 1.800781 -4.25 2 -4.25 C 2.019531 -4.25 2.03125 -4.222656 2.03125 -4.171875 C 2.03125 -4.128906 2.019531 -4.109375 2 -4.109375 C 1.8125 -4.109375 1.671875 -4.09375 1.578125 -4.0625 C 1.492188 -4.03125 1.453125 -3.976562 1.453125 -3.90625 C 1.453125 -3.84375 1.472656 -3.769531 1.515625 -3.6875 L 2.8125 -1.03125 L 3.46875 -2.953125 C 3.539062 -3.140625 3.578125 -3.3125 3.578125 -3.46875 C 3.578125 -3.664062 3.515625 -3.820312 3.390625 -3.9375 C 3.273438 -4.050781 3.109375 -4.109375 2.890625 -4.109375 C 2.878906 -4.109375 2.875 -4.128906 2.875 -4.171875 C 2.875 -4.222656 2.878906 -4.25 2.890625 -4.25 C 3.085938 -4.25 3.238281 -4.242188 3.34375 -4.234375 L 4 -4.21875 L 4.4375 -4.234375 C 4.53125 -4.242188 4.664062 -4.25 4.84375 -4.25 Z M 4.84375 -4.25 "/></g></g></g><g fill="#ffffff" fill-opacity="1"><g transform="translate(185.575341, 284.970332)"><g/></g></g><g fill="#ffffff" fill-opacity="1"><g transform="translate(191.117634, 284.970332)"><g><path d="M 7.953125 -6.875 C 7.960938 -6.875 7.96875 -6.851562 7.96875 -6.8125 C 7.96875 -6.769531 7.960938 -6.75 7.953125 -6.75 C 7.660156 -6.75 7.425781 -6.628906 7.25 -6.390625 C 7.082031 -6.160156 7 -5.851562 7 -5.46875 L 7 0.171875 C 7 0.191406 6.984375 0.203125 6.953125 0.203125 C 6.921875 0.210938 6.898438 0.210938 6.890625 0.203125 L 1.734375 -5.671875 L 1.734375 -1.390625 C 1.734375 -1.003906 1.8125 -0.695312 1.96875 -0.46875 C 2.132812 -0.238281 2.359375 -0.125 2.640625 -0.125 C 2.648438 -0.125 2.65625 -0.101562 2.65625 -0.0625 C 2.65625 -0.0195312 2.648438 0 2.640625 0 C 2.429688 0 2.273438 -0.00390625 2.171875 -0.015625 L 0.890625 -0.015625 C 0.765625 -0.00390625 0.585938 0 0.359375 0 C 0.328125 0 0.3125 -0.0195312 0.3125 -0.0625 C 0.3125 -0.101562 0.328125 -0.125 0.359375 -0.125 C 0.679688 -0.125 0.929688 -0.238281 1.109375 -0.46875 C 1.296875 -0.695312 1.390625 -1.003906 1.390625 -1.390625 L 1.390625 -6.046875 C 1.148438 -6.316406 0.941406 -6.5 0.765625 -6.59375 C 0.597656 -6.695312 0.421875 -6.75 0.234375 -6.75 C 0.222656 -6.75 0.21875 -6.769531 0.21875 -6.8125 C 0.21875 -6.851562 0.222656 -6.875 0.234375 -6.875 L 0.703125 -6.859375 C 0.796875 -6.859375 0.9375 -6.859375 1.125 -6.859375 L 1.953125 -6.859375 C 2.054688 -6.867188 2.179688 -6.875 2.328125 -6.875 C 2.390625 -6.875 2.4375 -6.859375 2.46875 -6.828125 C 2.5 -6.796875 2.550781 -6.734375 2.625 -6.640625 C 2.75 -6.472656 2.832031 -6.359375 2.875 -6.296875 L 6.6875 -1.90625 L 6.6875 -5.46875 C 6.6875 -5.863281 6.601562 -6.175781 6.4375 -6.40625 C 6.28125 -6.632812 6.0625 -6.75 5.78125 -6.75 C 5.757812 -6.75 5.75 -6.769531 5.75 -6.8125 C 5.75 -6.851562 5.757812 -6.875 5.78125 -6.875 L 6.25 -6.859375 C 6.476562 -6.847656 6.675781 -6.84375 6.84375 -6.84375 C 6.988281 -6.84375 7.191406 -6.847656 7.453125 -6.859375 Z M 7.953125 -6.875 "/></g></g></g><g fill="#ffffff" fill-opacity="1"><g transform="translate(202.16703, 284.970332)"><g><path d="M 4.265625 -0.71875 C 4.285156 -0.71875 4.300781 -0.703125 4.3125 -0.671875 C 4.332031 -0.648438 4.335938 -0.628906 4.328125 -0.609375 C 4.054688 -0.347656 3.78125 -0.160156 3.5 -0.046875 C 3.21875 0.0664062 2.910156 0.125 2.578125 0.125 C 2.117188 0.125 1.71875 0.03125 1.375 -0.15625 C 1.039062 -0.351562 0.785156 -0.613281 0.609375 -0.9375 C 0.441406 -1.269531 0.359375 -1.625 0.359375 -2 C 0.359375 -2.425781 0.460938 -2.816406 0.671875 -3.171875 C 0.878906 -3.535156 1.171875 -3.820312 1.546875 -4.03125 C 1.929688 -4.238281 2.363281 -4.34375 2.84375 -4.34375 C 3.289062 -4.34375 3.640625 -4.238281 3.890625 -4.03125 C 4.140625 -3.832031 4.265625 -3.515625 4.265625 -3.078125 C 4.265625 -2.847656 4.222656 -2.734375 4.140625 -2.734375 L 1.46875 -2.734375 C 1.46875 -2.679688 1.46875 -2.59375 1.46875 -2.46875 C 1.46875 -1.820312 1.613281 -1.316406 1.90625 -0.953125 C 2.207031 -0.585938 2.632812 -0.40625 3.1875 -0.40625 C 3.382812 -0.40625 3.550781 -0.425781 3.6875 -0.46875 C 3.832031 -0.507812 4.019531 -0.59375 4.25 -0.71875 Z M 2.421875 -4.125 C 2.179688 -4.125 1.976562 -4.019531 1.8125 -3.8125 C 1.65625 -3.601562 1.550781 -3.316406 1.5 -2.953125 L 3.09375 -2.96875 C 3.082031 -3.34375 3.023438 -3.628906 2.921875 -3.828125 C 2.816406 -4.023438 2.648438 -4.125 2.421875 -4.125 Z M 2.421875 -4.125 "/></g></g></g><g fill="#ffffff" fill-opacity="1"><g transform="translate(209.731895, 284.970332)"><g><path d="M 4.609375 -0.59375 C 4.640625 -0.59375 4.660156 -0.578125 4.671875 -0.546875 C 4.679688 -0.515625 4.671875 -0.488281 4.640625 -0.46875 L 3.515625 0.0625 C 3.484375 0.0820312 3.445312 0.09375 3.40625 0.09375 C 3.28125 0.09375 3.164062 0.03125 3.0625 -0.09375 C 2.957031 -0.21875 2.882812 -0.390625 2.84375 -0.609375 L 2.359375 -0.28125 C 2.191406 -0.15625 2.035156 -0.0625 1.890625 0 C 1.742188 0.0507812 1.578125 0.078125 1.390625 0.078125 C 1.078125 0.078125 0.835938 0.0078125 0.671875 -0.125 C 0.515625 -0.269531 0.4375 -0.46875 0.4375 -0.71875 C 0.4375 -0.914062 0.484375 -1.070312 0.578125 -1.1875 C 0.671875 -1.3125 0.789062 -1.40625 0.9375 -1.46875 C 1.082031 -1.539062 1.285156 -1.625 1.546875 -1.71875 L 1.8125 -1.8125 L 2.8125 -2.171875 L 2.8125 -2.8125 C 2.8125 -3.28125 2.769531 -3.617188 2.6875 -3.828125 C 2.613281 -4.035156 2.484375 -4.140625 2.296875 -4.140625 C 1.910156 -4.140625 1.691406 -3.84375 1.640625 -3.25 C 1.617188 -3.03125 1.550781 -2.867188 1.4375 -2.765625 C 1.332031 -2.671875 1.1875 -2.625 1 -2.625 C 0.8125 -2.625 0.675781 -2.660156 0.59375 -2.734375 C 0.507812 -2.816406 0.46875 -2.921875 0.46875 -3.046875 C 0.46875 -3.265625 0.597656 -3.472656 0.859375 -3.671875 C 1.117188 -3.878906 1.425781 -4.046875 1.78125 -4.171875 C 2.144531 -4.296875 2.46875 -4.359375 2.75 -4.359375 C 3.070312 -4.359375 3.332031 -4.253906 3.53125 -4.046875 C 3.738281 -3.847656 3.84375 -3.546875 3.84375 -3.140625 L 3.84375 -1.1875 C 3.84375 -0.976562 3.878906 -0.8125 3.953125 -0.6875 C 4.023438 -0.570312 4.132812 -0.515625 4.28125 -0.515625 C 4.382812 -0.515625 4.488281 -0.539062 4.59375 -0.59375 Z M 2.8125 -0.796875 C 2.8125 -0.828125 2.8125 -0.875 2.8125 -0.9375 L 2.8125 -1.984375 L 2.328125 -1.765625 C 2.304688 -1.765625 2.234375 -1.738281 2.109375 -1.6875 C 1.984375 -1.632812 1.875 -1.550781 1.78125 -1.4375 C 1.695312 -1.332031 1.65625 -1.207031 1.65625 -1.0625 C 1.65625 -0.882812 1.707031 -0.742188 1.8125 -0.640625 C 1.925781 -0.546875 2.0625 -0.5 2.21875 -0.5 C 2.332031 -0.5 2.453125 -0.539062 2.578125 -0.625 Z M 2.8125 -0.796875 "/></g></g></g></svg>